<?xml version="1.0" encoding="utf-8"?>
<!-- Generator: Adobe Illustrator 16.0.4, SVG Export Plug-In . SVG Version: 6.00 Build 0)  -->
<!DOCTYPE svg PUBLIC "-//W3C//DTD SVG 1.1//EN" "http://www.w3.org/Graphics/SVG/1.1/DTD/svg11.dtd">
<svg version="1.1" id="Layer_1" xmlns="http://www.w3.org/2000/svg" xmlns:xlink="http://www.w3.org/1999/xlink" x="0px" y="0px"
	 width="18px" height="18px" viewBox="0 0 18 18" enable-background="new 0 0 18 18" xml:space="preserve">
<path fill="#FFFFFF" d="M-91.335,3200.087c-1.158,0.515-2.403,0.861-3.709,1.018c1.333-0.799,2.358-2.065,2.84-3.573
	c-1.248,0.74-2.63,1.278-4.101,1.566c-1.178-1.254-2.857-2.039-4.715-2.039c-3.566,0-6.458,2.893-6.458,6.459
	c0,0.506,0.057,0.999,0.167,1.472c-5.368-0.269-10.126-2.84-13.312-6.748c-0.556,0.954-0.875,2.063-0.875,3.246
	c0,2.241,1.14,4.218,2.873,5.377c-1.059-0.034-2.055-0.324-2.925-0.809c0,0.027,0,0.055,0,0.082c0,3.129,2.226,5.739,5.18,6.333
	c-0.542,0.146-1.112,0.227-1.701,0.227c-0.417,0-0.82-0.04-1.215-0.116c0.821,2.565,3.207,4.433,6.033,4.485
	c-2.21,1.731-4.995,2.765-8.021,2.765c-0.521,0-1.035-0.03-1.541-0.091c2.858,1.833,6.253,2.902,9.9,2.902
	c11.879,0,18.376-9.842,18.376-18.376c0-0.28-0.006-0.558-0.02-0.836C-93.296,3202.52-92.201,3201.382-91.335,3200.087z"/>
<path fill="#FFFFFF" d="M18,4.268c-0.662,0.294-1.373,0.493-2.12,0.582c0.762-0.457,1.348-1.181,1.623-2.043c-0.713,0.423-1.504,0.731-2.345,0.896
	c-0.674-0.717-1.634-1.166-2.696-1.166c-2.039,0-3.692,1.654-3.692,3.693c0,0.289,0.032,0.571,0.096,0.841
	c-3.069-0.153-5.79-1.624-7.612-3.858c-0.317,0.545-0.5,1.18-0.5,1.856c0,1.282,0.652,2.412,1.644,3.075
	c-0.605-0.02-1.175-0.186-1.673-0.462C0.723,7.696,0.723,7.712,0.723,7.728c0,1.789,1.273,3.281,2.963,3.621
	c-0.311,0.084-0.637,0.13-0.974,0.13c-0.237,0-0.469-0.023-0.694-0.066c0.47,1.467,1.834,2.534,3.45,2.564
	c-1.265,0.99-2.856,1.581-4.587,1.581c-0.298,0-0.592-0.018-0.881-0.052c1.635,1.048,3.575,1.659,5.661,1.659
	c6.793,0,10.508-5.628,10.508-10.507c0-0.16-0.004-0.319-0.012-0.478C16.879,5.659,17.506,5.008,18,4.268z"/>
<g>
</g>
<g>
</g>
<g>
</g>
<g>
</g>
<g>
</g>
<g>
</g>
</svg>
