<?xml version="1.0" encoding="utf-8"?>
<!-- Generator: Adobe Illustrator 16.0.4, SVG Export Plug-In . SVG Version: 6.00 Build 0)  -->
<!DOCTYPE svg PUBLIC "-//W3C//DTD SVG 1.1//EN" "http://www.w3.org/Graphics/SVG/1.1/DTD/svg11.dtd">
<svg version="1.1" id="Layer_1" xmlns="http://www.w3.org/2000/svg" xmlns:xlink="http://www.w3.org/1999/xlink" x="0px" y="0px"
	 width="18px" height="18px" viewBox="0 0 18 18" enable-background="new 0 0 18 18" xml:space="preserve">
<path fill-rule="evenodd" clip-rule="evenodd" fill="#FFFFFF" d="M9,0.5c-4.694,0-8.5,3.902-8.5,8.716
	c0,3.85,2.435,7.116,5.813,8.27c0.425,0.08,0.58-0.189,0.58-0.421c0-0.206-0.007-0.754-0.011-1.481
	c-2.365,0.526-2.864-1.168-2.864-1.168c-0.386-1.007-0.943-1.275-0.943-1.275c-0.772-0.541,0.058-0.529,0.058-0.529
	c0.853,0.062,1.302,0.897,1.302,0.897c0.758,1.332,1.989,0.947,2.474,0.725c0.078-0.563,0.297-0.947,0.54-1.165
	c-1.887-0.221-3.872-0.969-3.872-4.308c0-0.951,0.331-1.729,0.875-2.338C4.364,6.201,4.073,5.314,4.535,4.115
	c0,0,0.714-0.234,2.337,0.894c0.679-0.194,1.406-0.29,2.129-0.294c0.721,0.004,1.448,0.1,2.128,0.294
	c1.622-1.128,2.335-0.894,2.335-0.894c0.464,1.2,0.172,2.086,0.085,2.307c0.544,0.609,0.873,1.387,0.873,2.338
	c0,3.349-1.987,4.084-3.881,4.3c0.306,0.27,0.576,0.802,0.576,1.614c0,1.165-0.01,2.105-0.01,2.391c0,0.233,0.153,0.505,0.585,0.42
	c3.375-1.154,5.808-4.42,5.808-8.269C17.5,4.402,13.694,0.5,9,0.5z"/>
<g>
</g>
<g>
</g>
<g>
</g>
<g>
</g>
<g>
</g>
<g>
</g>
</svg>
