<?xml version="1.0" encoding="utf-8"?>
<!-- Generator: Adobe Illustrator 16.0.4, SVG Export Plug-In . SVG Version: 6.00 Build 0)  -->
<!DOCTYPE svg PUBLIC "-//W3C//DTD SVG 1.1//EN" "http://www.w3.org/Graphics/SVG/1.1/DTD/svg11.dtd">
<svg version="1.1" id="Layer_1" xmlns="http://www.w3.org/2000/svg" xmlns:xlink="http://www.w3.org/1999/xlink" x="0px" y="0px"
	 width="129px" height="26px" viewBox="3.816 0.73 129 26" enable-background="new 3.816 0.73 129 26" xml:space="preserve">
<rect x="50.602" y="6.5" fill="none" width="86.667" height="23.5"/>
<g enable-background="new    ">
	<path d="M63.298,6.993v3.12h-7.176v4.428h5.976v3.132h-5.976v6.804h-4.08V6.993H63.298z"/>
</g>
<g enable-background="new    ">
	<path d="M69.273,11.84c0.824,0,1.579,0.128,2.263,0.384c0.685,0.256,1.271,0.628,1.764,1.116c0.492,0.488,0.876,1.086,1.152,1.794
		c0.274,0.708,0.414,1.511,0.414,2.406c0,0.278-0.013,0.508-0.036,0.685c-0.023,0.176-0.068,0.315-0.132,0.42
		c-0.064,0.104-0.15,0.176-0.259,0.215c-0.107,0.041-0.246,0.062-0.414,0.062H66.85c0.12,1.04,0.436,1.794,0.948,2.263
		c0.512,0.467,1.172,0.701,1.98,0.701c0.432,0,0.804-0.052,1.115-0.156c0.312-0.104,0.59-0.22,0.834-0.348s0.469-0.244,0.672-0.349
		c0.205-0.104,0.418-0.155,0.644-0.155c0.296,0,0.521,0.107,0.672,0.323l1.08,1.332c-0.384,0.44-0.798,0.798-1.242,1.073
		c-0.444,0.276-0.899,0.492-1.368,0.648c-0.468,0.155-0.936,0.264-1.402,0.323c-0.469,0.062-0.914,0.091-1.339,0.091
		c-0.872,0-1.689-0.143-2.454-0.427c-0.764-0.283-1.432-0.705-2.004-1.267c-0.572-0.56-1.024-1.256-1.356-2.088
		s-0.498-1.8-0.498-2.904c0-0.832,0.142-1.618,0.426-2.362c0.284-0.745,0.692-1.396,1.224-1.957
		c0.532-0.561,1.176-1.004,1.932-1.332S68.322,11.84,69.273,11.84z M69.346,14.409c-0.712,0-1.268,0.202-1.668,0.606
		c-0.4,0.404-0.664,0.985-0.792,1.746h4.645c0-0.296-0.038-0.584-0.114-0.864c-0.076-0.278-0.2-0.529-0.372-0.75
		s-0.398-0.398-0.678-0.534C70.086,14.477,69.746,14.409,69.346,14.409z"/>
</g>
<g enable-background="new    ">
	<path d="M81.752,11.84c0.824,0,1.578,0.128,2.264,0.384c0.684,0.256,1.271,0.628,1.764,1.116c0.492,0.488,0.875,1.086,1.152,1.794
		c0.274,0.708,0.414,1.511,0.414,2.406c0,0.278-0.014,0.508-0.037,0.685c-0.023,0.176-0.067,0.315-0.132,0.42
		c-0.063,0.104-0.149,0.176-0.259,0.215c-0.107,0.041-0.245,0.062-0.414,0.062h-7.176c0.12,1.04,0.436,1.794,0.947,2.263
		c0.513,0.467,1.172,0.701,1.98,0.701c0.432,0,0.805-0.052,1.115-0.156c0.312-0.104,0.59-0.22,0.834-0.348s0.469-0.244,0.672-0.349
		c0.204-0.104,0.418-0.155,0.643-0.155c0.297,0,0.521,0.107,0.672,0.323l1.08,1.332c-0.383,0.44-0.797,0.798-1.242,1.073
		c-0.443,0.276-0.898,0.492-1.367,0.648c-0.469,0.155-0.936,0.264-1.403,0.323c-0.469,0.062-0.913,0.091-1.339,0.091
		c-0.872,0-1.689-0.143-2.453-0.427c-0.765-0.283-1.433-0.705-2.004-1.267c-0.572-0.56-1.023-1.256-1.355-2.088
		s-0.498-1.8-0.498-2.904c0-0.832,0.142-1.618,0.426-2.362c0.283-0.745,0.691-1.396,1.224-1.957c0.533-0.56,1.177-1.004,1.933-1.332
		S80.801,11.84,81.752,11.84z M81.824,14.409c-0.713,0-1.268,0.202-1.668,0.606c-0.4,0.404-0.664,0.985-0.793,1.746h4.646
		c0-0.296-0.038-0.584-0.114-0.864c-0.076-0.278-0.199-0.529-0.371-0.75s-0.398-0.398-0.678-0.534
		C82.564,14.477,82.225,14.409,81.824,14.409z"/>
</g>
<g enable-background="new    ">
	<path d="M97.713,24.477c-0.23,0-0.426-0.052-0.582-0.156c-0.154-0.104-0.266-0.26-0.33-0.467l-0.287-0.949
		c-0.248,0.266-0.509,0.505-0.779,0.722c-0.272,0.216-0.566,0.401-0.883,0.558c-0.315,0.156-0.656,0.276-1.021,0.36
		c-0.365,0.084-0.759,0.126-1.183,0.126c-0.647,0-1.248-0.145-1.799-0.434c-0.554-0.287-1.029-0.703-1.43-1.247
		c-0.398-0.544-0.714-1.21-0.941-1.998c-0.229-0.787-0.343-1.687-0.343-2.693c0-0.929,0.13-1.79,0.386-2.586
		s0.617-1.484,1.086-2.064c0.468-0.58,1.028-1.034,1.686-1.362s1.381-0.492,2.172-0.492c0.641,0,1.184,0.094,1.626,0.282
		c0.444,0.188,0.847,0.434,1.206,0.738v-6.3h3.721v17.964h-2.305V24.477z M93.945,21.812c0.271,0,0.518-0.025,0.738-0.078
		c0.219-0.053,0.422-0.127,0.604-0.223s0.358-0.216,0.522-0.359c0.162-0.145,0.324-0.312,0.484-0.504v-5.28
		c-0.288-0.312-0.594-0.53-0.918-0.654s-0.666-0.186-1.025-0.186c-0.345,0-0.66,0.068-0.947,0.204
		c-0.288,0.136-0.538,0.354-0.75,0.654c-0.213,0.3-0.379,0.689-0.498,1.171c-0.12,0.479-0.182,1.06-0.182,1.739
		c0,0.655,0.049,1.208,0.146,1.655c0.096,0.447,0.229,0.811,0.401,1.086s0.377,0.475,0.617,0.595S93.648,21.812,93.945,21.812z"/>
</g>
<g enable-background="new    ">
	<path d="M102.057,24.477V6.513h3.721v6.84c0.465-0.456,0.99-0.822,1.578-1.098c0.588-0.276,1.277-0.414,2.069-0.414
		c0.648,0,1.248,0.14,1.802,0.42c0.551,0.28,1.026,0.69,1.428,1.23c0.398,0.54,0.714,1.202,0.941,1.986
		c0.229,0.784,0.342,1.675,0.342,2.675c0,0.938-0.131,1.801-0.391,2.593s-0.624,1.479-1.092,2.063
		c-0.469,0.584-1.028,1.041-1.68,1.368c-0.652,0.328-1.375,0.492-2.166,0.492c-0.368,0-0.698-0.036-0.99-0.108
		c-0.292-0.071-0.561-0.174-0.805-0.306s-0.467-0.29-0.672-0.476c-0.203-0.184-0.401-0.383-0.595-0.6l-0.132,0.625
		c-0.057,0.256-0.157,0.432-0.307,0.527c-0.147,0.096-0.342,0.145-0.582,0.145H102.057L102.057,24.477z M108.129,14.637
		c-0.271,0-0.518,0.026-0.736,0.078c-0.222,0.052-0.426,0.126-0.613,0.222c-0.187,0.096-0.361,0.218-0.521,0.366
		c-0.159,0.148-0.319,0.318-0.479,0.509v5.28c0.279,0.312,0.584,0.53,0.912,0.653c0.328,0.125,0.672,0.188,1.031,0.188
		c0.344,0,0.659-0.068,0.947-0.205c0.288-0.136,0.538-0.354,0.75-0.653s0.378-0.689,0.498-1.171c0.12-0.479,0.182-1.062,0.182-1.752
		c0-0.654-0.05-1.207-0.146-1.655c-0.097-0.447-0.229-0.81-0.402-1.085c-0.172-0.275-0.378-0.474-0.616-0.594
		C108.693,14.697,108.425,14.637,108.129,14.637z"/>
</g>
<g enable-background="new    ">
	<path d="M119.648,8.625c0,0.296-0.062,0.574-0.181,0.834c-0.12,0.26-0.284,0.488-0.491,0.684c-0.209,0.196-0.451,0.352-0.728,0.468
		c-0.274,0.116-0.569,0.174-0.881,0.174c-0.306,0-0.589-0.058-0.853-0.174c-0.266-0.116-0.498-0.271-0.703-0.468
		c-0.203-0.196-0.363-0.424-0.479-0.684c-0.115-0.26-0.174-0.538-0.174-0.834c0-0.304,0.059-0.588,0.174-0.852
		c0.116-0.264,0.276-0.496,0.479-0.696c0.205-0.2,0.438-0.356,0.703-0.468c0.264-0.112,0.547-0.168,0.853-0.168
		c0.312,0,0.604,0.056,0.881,0.168c0.276,0.112,0.519,0.268,0.728,0.468c0.207,0.2,0.371,0.432,0.491,0.696
		S119.648,8.321,119.648,8.625z M119.217,12.033v12.443h-3.721V12.033H119.217z"/>
</g>
<g enable-background="new    ">
	<path d="M121.354,24.477V12.033h2.306c0.231,0,0.426,0.052,0.582,0.156c0.155,0.104,0.266,0.26,0.329,0.468l0.217,0.72
		c0.238-0.224,0.486-0.432,0.744-0.624c0.256-0.192,0.529-0.354,0.822-0.486c0.291-0.132,0.606-0.236,0.946-0.312
		c0.341-0.076,0.71-0.114,1.11-0.114c0.68,0,1.281,0.118,1.806,0.354c0.524,0.236,0.966,0.564,1.326,0.984
		c0.36,0.42,0.632,0.92,0.815,1.5c0.185,0.58,0.275,1.209,0.275,1.889v7.908h-3.72v-7.908c0-0.606-0.14-1.082-0.42-1.421
		s-0.692-0.51-1.236-0.51c-0.407,0-0.792,0.088-1.151,0.264c-0.359,0.176-0.703,0.412-1.031,0.708v8.867H121.354z"/>
</g>
<path fill="#231F20" d="M33.935,20.758c-5.816-0.021-25-0.021-29,0c-1.254,0.008-1.239-5.803,0-5.998c4.03-0.638,15.565,0,15.565,0
	s4.154,4.201,5.375,4.207c1.237,0.006,4.144-4.207,4.144-4.207s3.31-0.605,3.916,0C34.935,15.758,35.191,20.764,33.935,20.758z"/>
<path fill="#231F20" d="M32.521,26.326c-4.92,0.652-21.566,0.492-26.566,0c-1.116-0.109-0.396-3.508-0.396-3.508h27.877
	C33.435,22.818,33.923,26.141,32.521,26.326z"/>
<path fill="#231F20" d="M18.904,0.806C11.817-0.153,5.955,5.764,5.955,11.484l26.48,0.271C32.435,6.034,25.935,1.758,18.904,0.806z
	 M10.435,8.255c-0.553,0-1-0.448-1-1c0-0.553,0.447-1,1-1c0.553,0,1,0.447,1,1C11.435,7.807,10.988,8.255,10.435,8.255z
	 M12.435,9.758c-0.276,0-0.5-0.224-0.5-0.5c0-0.276,0.224-0.5,0.5-0.5s0.5,0.224,0.5,0.5C12.935,9.534,12.711,9.758,12.435,9.758z
	 M12.935,5.755c-0.553,0-1-0.448-1-1c0-0.553,0.447-1,1-1c0.553,0,1,0.447,1,1C13.935,5.307,13.488,5.755,12.935,5.755z
	 M14.935,8.755c-0.553,0-1-0.448-1-1c0-0.553,0.447-1,1-1c0.553,0,1,0.447,1,1C15.935,8.307,15.488,8.755,14.935,8.755z
	 M16.935,4.755c-0.553,0-1-0.448-1-1c0-0.553,0.447-1,1-1c0.553,0,1,0.447,1,1C17.935,4.307,17.488,4.755,16.935,4.755z
	 M18.435,7.758c-0.276,0-0.5-0.224-0.5-0.5c0-0.276,0.224-0.5,0.5-0.5s0.5,0.224,0.5,0.5C18.935,7.534,18.711,7.758,18.435,7.758z"
	/>
</svg>
